<?xml version="1.0" encoding="UTF-8" standalone="no"?>
<!DOCTYPE svg PUBLIC "-//W3C//DTD SVG 1.1//EN"
 "http://www.w3.org/Graphics/SVG/1.1/DTD/svg11.dtd">
<!-- Generated by graphviz version 2.40.1 (20161225.0304)
 -->
<!-- Title: dependencies Pages: 1 -->
<svg width="1780pt" height="284pt"
 viewBox="0.00 0.00 1780.00 284.00" xmlns="http://www.w3.org/2000/svg" xmlns:xlink="http://www.w3.org/1999/xlink">
<g id="graph0" class="graph" transform="scale(1 1) rotate(0) translate(4 280)">
<title>dependencies</title>
<polygon fill="#ffffff" stroke="transparent" points="-4,4 -4,-280 1776,-280 1776,4 -4,4"/>
<text text-anchor="start" x="865.0091" y="-42.4" font-family="sans-serif" font-weight="bold" font-size="14.00" fill="#000000">Legend</text>
<polygon fill="#ffffb3" stroke="transparent" points="652,-10 652,-30 672,-30 672,-10 652,-10"/>
<text text-anchor="start" x="675.629" y="-15.4" font-family="sans-serif" font-size="14.00" fill="#000000"> &#160;Declarations</text>
<polygon fill="#8dd3c7" stroke="transparent" points="765,-10 765,-30 785,-30 785,-10 765,-10"/>
<text text-anchor="start" x="788.7251" y="-15.4" font-family="sans-serif" font-size="14.00" fill="#000000"> &#160;Module</text>
<polygon fill="#80b1d3" stroke="transparent" points="851,-10 851,-30 871,-30 871,-10 851,-10"/>
<text text-anchor="start" x="874.7812" y="-15.4" font-family="sans-serif" font-size="14.00" fill="#000000"> &#160;Bootstrap</text>
<polygon fill="#fdb462" stroke="transparent" points="948,-10 948,-30 968,-30 968,-10 948,-10"/>
<text text-anchor="start" x="971.6732" y="-15.4" font-family="sans-serif" font-size="14.00" fill="#000000"> &#160;Providers</text>
<polygon fill="#fb8072" stroke="transparent" points="1044,-10 1044,-30 1064,-30 1064,-10 1044,-10"/>
<text text-anchor="start" x="1067.7258" y="-15.4" font-family="sans-serif" font-size="14.00" fill="#000000"> &#160;Exports</text>
<g id="clust1" class="cluster">
<title>cluster_AppModule</title>
<polygon fill="none" stroke="#000000" stroke-dasharray="1,5" points="8,-70 8,-268 1764,-268 1764,-70 8,-70"/>
</g>
<g id="clust2" class="cluster">
<title>cluster_AppModule_declarations</title>
<polygon fill="none" stroke="#000000" points="445,-78 445,-130 1756,-130 1756,-78 445,-78"/>
</g>
<g id="clust12" class="cluster">
<title>cluster_AppModule_imports</title>
<polygon fill="none" stroke="#000000" points="293,-78 293,-130 437,-130 437,-78 293,-78"/>
</g>
<g id="clust14" class="cluster">
<title>cluster_AppModule_bootstrap</title>
<polygon fill="none" stroke="#000000" points="860,-208 860,-260 984,-260 984,-208 860,-208"/>
</g>
<g id="clust15" class="cluster">
<title>cluster_AppModule_providers</title>
<polygon fill="none" stroke="#000000" points="16,-78 16,-130 285,-130 285,-78 16,-78"/>
</g>
<!-- AboutComponent -->
<g id="node1" class="node">
<title>AboutComponent</title>
<polygon fill="#ffffb3" stroke="#000000" points="1748.3301,-122 1631.6699,-122 1631.6699,-86 1748.3301,-86 1748.3301,-122"/>
<text text-anchor="middle" x="1690" y="-99.8" font-family="Times,serif" font-size="14.00" fill="#000000">AboutComponent</text>
</g>
<!-- AppModule -->
<g id="node10" class="node">
<title>AppModule</title>
<polygon fill="#8dd3c7" stroke="#000000" points="963.6571,-187 960.6571,-191 939.6571,-191 936.6571,-187 880.3429,-187 880.3429,-151 963.6571,-151 963.6571,-187"/>
<text text-anchor="middle" x="922" y="-164.8" font-family="Times,serif" font-size="14.00" fill="#000000">AppModule</text>
</g>
<!-- AboutComponent&#45;&gt;AppModule -->
<g id="edge1" class="edge">
<title>AboutComponent&#45;&gt;AppModule</title>
<path fill="none" stroke="#000000" d="M1690,-122.2479C1690,-145.0179 1690,-181 1690,-181 1690,-181 973.8364,-181 973.8364,-181"/>
<polygon fill="#000000" stroke="#000000" points="973.8365,-177.5001 963.8364,-181 973.8364,-184.5001 973.8365,-177.5001"/>
</g>
<!-- AppComponent -->
<g id="node2" class="node">
<title>AppComponent</title>
<polygon fill="#ffffb3" stroke="#000000" points="1613.9399,-122 1508.0601,-122 1508.0601,-86 1613.9399,-86 1613.9399,-122"/>
<text text-anchor="middle" x="1561" y="-99.8" font-family="Times,serif" font-size="14.00" fill="#000000">AppComponent</text>
</g>
<!-- AppComponent&#45;&gt;AppModule -->
<g id="edge2" class="edge">
<title>AppComponent&#45;&gt;AppModule</title>
<path fill="none" stroke="#000000" d="M1561,-122.2843C1561,-143.3211 1561,-175 1561,-175 1561,-175 973.9266,-175 973.9266,-175"/>
<polygon fill="#000000" stroke="#000000" points="973.9266,-171.5001 963.9266,-175 973.9265,-178.5001 973.9266,-171.5001"/>
</g>
<!-- FooterComponent -->
<g id="node3" class="node">
<title>FooterComponent</title>
<polygon fill="#ffffb3" stroke="#000000" points="1489.8809,-122 1372.1191,-122 1372.1191,-86 1489.8809,-86 1489.8809,-122"/>
<text text-anchor="middle" x="1431" y="-99.8" font-family="Times,serif" font-size="14.00" fill="#000000">FooterComponent</text>
</g>
<!-- FooterComponent&#45;&gt;AppModule -->
<g id="edge3" class="edge">
<title>FooterComponent&#45;&gt;AppModule</title>
<path fill="none" stroke="#000000" d="M1431,-122.1061C1431,-141.3391 1431,-169 1431,-169 1431,-169 974.0866,-169 974.0866,-169"/>
<polygon fill="#000000" stroke="#000000" points="974.0867,-165.5001 964.0866,-169 974.0866,-172.5001 974.0867,-165.5001"/>
</g>
<!-- HeaderComponent -->
<g id="node4" class="node">
<title>HeaderComponent</title>
<polygon fill="#ffffb3" stroke="#000000" points="1353.7437,-122 1232.2563,-122 1232.2563,-86 1353.7437,-86 1353.7437,-122"/>
<text text-anchor="middle" x="1293" y="-99.8" font-family="Times,serif" font-size="14.00" fill="#000000">HeaderComponent</text>
</g>
<!-- HeaderComponent&#45;&gt;AppModule -->
<g id="edge4" class="edge">
<title>HeaderComponent&#45;&gt;AppModule</title>
<path fill="none" stroke="#000000" d="M1293,-122.0225C1293,-139.3734 1293,-163 1293,-163 1293,-163 973.8372,-163 973.8372,-163"/>
<polygon fill="#000000" stroke="#000000" points="973.8373,-159.5001 963.8372,-163 973.8372,-166.5001 973.8373,-159.5001"/>
</g>
<!-- LoginComponent -->
<g id="node5" class="node">
<title>LoginComponent</title>
<polygon fill="#ffffb3" stroke="#000000" points="1214.2758,-122 1099.7242,-122 1099.7242,-86 1214.2758,-86 1214.2758,-122"/>
<text text-anchor="middle" x="1157" y="-99.8" font-family="Times,serif" font-size="14.00" fill="#000000">LoginComponent</text>
</g>
<!-- LoginComponent&#45;&gt;AppModule -->
<g id="edge5" class="edge">
<title>LoginComponent&#45;&gt;AppModule</title>
<path fill="none" stroke="#000000" d="M1157,-122.2396C1157,-137.5706 1157,-157 1157,-157 1157,-157 973.7425,-157 973.7425,-157"/>
<polygon fill="#000000" stroke="#000000" points="973.7425,-153.5001 963.7425,-157 973.7425,-160.5001 973.7425,-153.5001"/>
</g>
<!-- MainLayoutComponent -->
<g id="node6" class="node">
<title>MainLayoutComponent</title>
<polygon fill="#ffffb3" stroke="#000000" points="1081.0407,-122 930.9593,-122 930.9593,-86 1081.0407,-86 1081.0407,-122"/>
<text text-anchor="middle" x="1006" y="-99.8" font-family="Times,serif" font-size="14.00" fill="#000000">MainLayoutComponent</text>
</g>
<!-- MainLayoutComponent&#45;&gt;AppModule -->
<g id="edge6" class="edge">
<title>MainLayoutComponent&#45;&gt;AppModule</title>
<path fill="none" stroke="#000000" d="M947.2791,-122.1061C947.2791,-122.1061 947.2791,-140.991 947.2791,-140.991"/>
<polygon fill="#000000" stroke="#000000" points="943.7792,-140.9909 947.2791,-150.991 950.7792,-140.991 943.7792,-140.9909"/>
</g>
<!-- PlainLayoutComponent -->
<g id="node7" class="node">
<title>PlainLayoutComponent</title>
<polygon fill="#ffffb3" stroke="#000000" points="912.7688,-122 763.2312,-122 763.2312,-86 912.7688,-86 912.7688,-122"/>
<text text-anchor="middle" x="838" y="-99.8" font-family="Times,serif" font-size="14.00" fill="#000000">PlainLayoutComponent</text>
</g>
<!-- PlainLayoutComponent&#45;&gt;AppModule -->
<g id="edge7" class="edge">
<title>PlainLayoutComponent&#45;&gt;AppModule</title>
<path fill="none" stroke="#000000" d="M896.528,-122.1061C896.528,-122.1061 896.528,-140.991 896.528,-140.991"/>
<polygon fill="#000000" stroke="#000000" points="893.0281,-140.9909 896.528,-150.991 900.0281,-140.991 893.0281,-140.9909"/>
</g>
<!-- ReportComponent -->
<g id="node8" class="node">
<title>ReportComponent</title>
<polygon fill="#ffffb3" stroke="#000000" points="744.9356,-122 625.0644,-122 625.0644,-86 744.9356,-86 744.9356,-122"/>
<text text-anchor="middle" x="685" y="-99.8" font-family="Times,serif" font-size="14.00" fill="#000000">ReportComponent</text>
</g>
<!-- ReportComponent&#45;&gt;AppModule -->
<g id="edge8" class="edge">
<title>ReportComponent&#45;&gt;AppModule</title>
<path fill="none" stroke="#000000" d="M685,-122.2396C685,-137.5706 685,-157 685,-157 685,-157 870.1747,-157 870.1747,-157"/>
<polygon fill="#000000" stroke="#000000" points="870.1747,-160.5001 880.1747,-157 870.1747,-153.5001 870.1747,-160.5001"/>
</g>
<!-- ReportDetailComponent -->
<g id="node9" class="node">
<title>ReportDetailComponent</title>
<polygon fill="#ffffb3" stroke="#000000" points="606.6428,-122 453.3572,-122 453.3572,-86 606.6428,-86 606.6428,-122"/>
<text text-anchor="middle" x="530" y="-99.8" font-family="Times,serif" font-size="14.00" fill="#000000">ReportDetailComponent</text>
</g>
<!-- ReportDetailComponent&#45;&gt;AppModule -->
<g id="edge9" class="edge">
<title>ReportDetailComponent&#45;&gt;AppModule</title>
<path fill="none" stroke="#000000" d="M530,-122.0225C530,-139.3734 530,-163 530,-163 530,-163 870.0491,-163 870.0491,-163"/>
<polygon fill="#000000" stroke="#000000" points="870.0492,-166.5001 880.0491,-163 870.0491,-159.5001 870.0492,-166.5001"/>
</g>
<!-- AppComponent  -->
<g id="node12" class="node">
<title>AppComponent </title>
<polygon fill="#80b1d3" stroke="#000000" points="976.439,-252 867.561,-252 867.561,-216 976.439,-216 976.439,-252"/>
<text text-anchor="middle" x="922" y="-229.8" font-family="Times,serif" font-size="14.00" fill="#000000">AppComponent </text>
</g>
<!-- AppModule&#45;&gt;AppComponent  -->
<g id="edge11" class="edge">
<title>AppModule&#45;&gt;AppComponent </title>
<path fill="none" stroke="#000000" stroke-dasharray="1,5" d="M922,-187.1061C922,-187.1061 922,-205.991 922,-205.991"/>
<polygon fill="#000000" stroke="#000000" points="918.5001,-205.9909 922,-215.991 925.5001,-205.991 918.5001,-205.9909"/>
</g>
<!-- AppRoutingModule -->
<g id="node11" class="node">
<title>AppRoutingModule</title>
<polygon fill="#8dd3c7" stroke="#000000" points="429.2744,-122 426.2744,-126 405.2744,-126 402.2744,-122 300.7256,-122 300.7256,-86 429.2744,-86 429.2744,-122"/>
<text text-anchor="middle" x="365" y="-99.8" font-family="Times,serif" font-size="14.00" fill="#000000">AppRoutingModule</text>
</g>
<!-- AppRoutingModule&#45;&gt;AppModule -->
<g id="edge10" class="edge">
<title>AppRoutingModule&#45;&gt;AppModule</title>
<path fill="none" stroke="#000000" d="M365,-122.1061C365,-141.3391 365,-169 365,-169 365,-169 870.1345,-169 870.1345,-169"/>
<polygon fill="#000000" stroke="#000000" points="870.1345,-172.5001 880.1345,-169 870.1344,-165.5001 870.1345,-172.5001"/>
</g>
<!-- AuthService -->
<g id="node13" class="node">
<title>AuthService</title>
<ellipse fill="#fdb462" stroke="#000000" cx="218" cy="-104" rx="59.1083" ry="18"/>
<text text-anchor="middle" x="218" y="-99.8" font-family="Times,serif" font-size="14.00" fill="#000000">AuthService</text>
</g>
<!-- AuthService&#45;&gt;AppModule -->
<g id="edge12" class="edge">
<title>AuthService&#45;&gt;AppModule</title>
<path fill="none" stroke="#000000" d="M218,-122.2843C218,-143.3211 218,-175 218,-175 218,-175 870.3302,-175 870.3302,-175"/>
<polygon fill="#000000" stroke="#000000" points="870.3303,-178.5001 880.3302,-175 870.3302,-171.5001 870.3303,-178.5001"/>
</g>
<!-- UserService -->
<g id="node14" class="node">
<title>UserService</title>
<ellipse fill="#fdb462" stroke="#000000" cx="82" cy="-104" rx="58.4415" ry="18"/>
<text text-anchor="middle" x="82" y="-99.8" font-family="Times,serif" font-size="14.00" fill="#000000">UserService</text>
</g>
<!-- UserService&#45;&gt;AppModule -->
<g id="edge13" class="edge">
<title>UserService&#45;&gt;AppModule</title>
<path fill="none" stroke="#000000" d="M82,-122.2479C82,-145.0179 82,-181 82,-181 82,-181 870.0569,-181 870.0569,-181"/>
<polygon fill="#000000" stroke="#000000" points="870.0569,-184.5001 880.0569,-181 870.0568,-177.5001 870.0569,-184.5001"/>
</g>
</g>
</svg>
